<?xml version="1.0" standalone="no"?>
<!DOCTYPE svg PUBLIC "-//W3C//DTD SVG 20010904//EN"
 "http://www.w3.org/TR/2001/REC-SVG-20010904/DTD/svg10.dtd">
<svg version="1.0" xmlns="http://www.w3.org/2000/svg"
 width="512.000000pt" height="512.000000pt" viewBox="0 0 512.000000 512.000000"
 preserveAspectRatio="xMidYMid meet">

<g transform="translate(0.000000,512.000000) scale(0.100000,-0.100000)"
fill="#000000" stroke="none">
<path d="M570 5105 c-290 -59 -514 -293 -559 -585 -9 -56 -11 -574 -9 -2005 3
-1822 4 -1933 21 -1990 74 -246 264 -435 509 -502 59 -17 186 -18 2028 -18
1868 0 1968 1 2030 18 247 69 436 258 507 507 17 62 18 153 18 2030 0 1874 -1
1968 -18 2030 -70 246 -255 433 -502 507 -57 17 -167 18 -2010 20 -1578 1
-1962 -1 -2015 -12z m3895 -275 c189 -27 338 -176 365 -365 13 -95 13 -3715 0
-3810 -27 -189 -176 -338 -365 -365 -95 -13 -3715 -13 -3810 0 -189 27 -338
176 -365 365 -13 95 -13 3715 0 3810 26 185 176 338 355 364 86 12 3732 13
3820 1z"/>
<path d="M2520 4263 c-16 -3 -113 -93 -268 -246 -195 -194 -244 -249 -253
-279 -24 -91 42 -178 136 -178 52 0 69 11 183 123 l102 102 0 -328 0 -327
-582 0 c-535 0 -586 -1 -618 -18 -102 -51 -107 -195 -8 -249 31 -17 101 -18
1348 -18 1247 0 1317 1 1348 18 99 54 94 198 -8 249 -32 17 -83 18 -617 18
l-583 0 0 327 0 328 103 -102 c113 -112 130 -123 182 -123 94 0 160 87 136
178 -15 55 -480 516 -530 526 -18 3 -36 5 -40 5 -3 -1 -17 -4 -31 -6z"/>
<path d="M1237 2266 c-46 -17 -64 -32 -83 -67 -34 -67 -4 -156 66 -191 32 -17
83 -18 618 -18 l582 0 0 -327 0 -328 -102 102 c-114 112 -131 123 -183 123
-94 0 -160 -87 -136 -178 15 -53 480 -516 528 -525 75 -14 85 -7 341 247 195
194 244 248 253 278 24 91 -42 178 -136 178 -52 0 -69 -11 -182 -123 l-103
-102 0 328 0 327 583 0 c534 0 585 1 617 18 102 51 107 195 8 249 -31 17 -103
18 -1333 20 -1070 2 -1307 0 -1338 -11z"/>
</g>
</svg>
