<?xml version="1.0" standalone="no"?>
<!DOCTYPE svg PUBLIC "-//W3C//DTD SVG 20010904//EN"
 "http://www.w3.org/TR/2001/REC-SVG-20010904/DTD/svg10.dtd">
<svg version="1.0" xmlns="http://www.w3.org/2000/svg"
 width="512.000000pt" height="512.000000pt" viewBox="0 0 512.000000 512.000000"
 preserveAspectRatio="xMidYMid meet">

<g transform="translate(0.000000,512.000000) scale(0.100000,-0.100000)"
fill="#000000" stroke="none">
<path d="M1346 5105 c-118 -19 -237 -52 -258 -72 -24 -22 -23 -78 2 -103 25
-25 55 -25 146 -1 415 111 875 -8 1213 -314 108 -97 114 -97 217 -3 409 372
973 461 1461 228 144 -68 271 -159 388 -275 336 -336 490 -792 446 -1319 -77
-914 -561 -1738 -1445 -2460 -265 -217 -650 -472 -904 -600 l-53 -27 -87 47
c-596 321 -1163 777 -1559 1255 -363 438 -607 929 -706 1419 -40 199 -52 321
-52 540 1 172 4 223 23 319 81 405 277 728 584 962 42 32 79 67 83 78 14 46
-42 109 -87 96 -42 -13 -171 -117 -268 -215 -125 -126 -214 -253 -300 -425
-144 -290 -199 -554 -186 -900 26 -715 289 -1359 810 -1990 125 -151 422 -448
586 -587 277 -233 591 -453 885 -620 194 -110 249 -138 276 -138 49 0 435 223
681 393 302 210 533 401 773 642 625 625 978 1296 1081 2055 25 181 25 511 0
650 -66 372 -227 685 -485 941 -214 211 -465 347 -761 410 -150 32 -419 33
-567 1 -245 -53 -480 -167 -660 -320 l-63 -53 -62 53 c-180 153 -418 268 -656
318 -130 28 -374 35 -496 15z"/>
<path d="M2978 3991 c-225 -74 -391 -330 -390 -600 1 -166 50 -290 153 -386
124 -114 283 -133 444 -53 82 42 199 161 248 255 152 291 72 653 -170 769 -77
37 -200 43 -285 15z m217 -150 c99 -45 156 -146 163 -285 8 -162 -43 -300
-149 -401 -74 -71 -135 -99 -214 -99 -275 0 -354 437 -124 688 95 104 224 143
324 97z"/>
<path d="M1892 3980 c-78 -28 -142 -78 -188 -147 -59 -87 -84 -168 -91 -289
-11 -198 51 -360 191 -499 87 -86 155 -126 247 -146 201 -43 404 100 464 327
23 86 21 240 -5 334 -57 203 -203 369 -371 421 -78 24 -178 24 -247 -1z m234
-154 c129 -60 230 -209 252 -374 37 -266 -124 -458 -333 -397 -50 14 -70 28
-130 88 -116 116 -161 236 -153 401 8 143 56 233 150 280 69 34 143 35 214 2z"/>
<path d="M3585 3147 c-106 -36 -218 -126 -286 -230 -63 -97 -84 -173 -84 -308
0 -113 1 -116 38 -192 54 -109 125 -164 243 -187 123 -24 267 33 376 149 110
116 159 237 159 391 0 166 -61 283 -180 349 -56 30 -75 35 -145 38 -49 2 -97
-2 -121 -10z m178 -151 c78 -33 120 -114 119 -226 -1 -192 -142 -374 -307
-397 -95 -13 -195 70 -211 174 -19 128 24 260 117 358 88 94 195 128 282 91z"/>
<path d="M1308 3127 c-98 -42 -150 -97 -196 -209 -32 -79 -36 -210 -8 -302 75
-253 314 -435 518 -397 189 35 299 197 285 420 -7 109 -36 192 -99 286 -90
136 -218 214 -361 222 -70 3 -90 0 -139 -20z m229 -152 c68 -34 147 -120 185
-202 36 -76 48 -188 29 -261 -25 -91 -126 -162 -213 -148 -134 22 -269 171
-299 330 -40 220 119 370 298 281z"/>
<path d="M2444 2876 c-183 -42 -345 -196 -387 -369 -9 -34 -19 -89 -24 -122
l-8 -60 -65 -35 c-203 -109 -312 -337 -270 -561 36 -192 204 -364 399 -409 85
-20 220 -8 321 29 116 42 188 42 312 0 54 -18 123 -34 165 -37 67 -4 73 -3 97
21 29 29 34 72 13 101 -10 13 -34 20 -88 26 -41 5 -108 21 -149 36 -66 25 -89
28 -190 29 -105 0 -123 -3 -212 -34 -87 -30 -106 -33 -177 -29 -290 17 -445
331 -285 576 35 53 88 98 159 134 88 44 113 86 131 215 20 141 70 226 172 291
234 151 538 -2 568 -286 13 -123 48 -175 153 -225 81 -38 148 -104 186 -182
26 -53 29 -71 29 -155 1 -100 -16 -157 -64 -217 -27 -35 -26 -78 5 -108 50
-51 100 -23 156 87 132 260 31 566 -231 704 l-74 39 -13 87 c-18 133 -64 227
-152 315 -121 121 -312 176 -477 139z"/>
</g>
</svg>
