<?xml version="1.0" standalone="no"?>
<!DOCTYPE svg PUBLIC "-//W3C//DTD SVG 20010904//EN"
 "http://www.w3.org/TR/2001/REC-SVG-20010904/DTD/svg10.dtd">
<svg version="1.0" xmlns="http://www.w3.org/2000/svg"
 width="512.000000pt" height="512.000000pt" viewBox="0 0 512.000000 512.000000"
 preserveAspectRatio="xMidYMid meet">

<g transform="translate(0.000000,512.000000) scale(0.100000,-0.100000)"
fill="#000000" stroke="none">
<path d="M51 4766 c-34 -19 -50 -54 -51 -109 0 -87 29 -198 82 -306 44 -91 62
-116 137 -190 97 -97 179 -149 296 -189 l80 -27 478 -3 477 -3 0 -229 0 -230
-137 0 c-223 0 -328 -33 -429 -134 -29 -29 -66 -79 -82 -112 -18 -35 -81 -243
-158 -517 l-127 -458 17 -35 c18 -40 66 -65 108 -57 57 11 65 30 198 508 142
507 145 515 241 569 l54 31 1349 3 c1484 3 1412 5 1488 -58 20 -17 48 -54 62
-83 37 -77 676 -2385 676 -2442 0 -63 -23 -103 -73 -126 -41 -18 -100 -19
-2131 -19 l-2090 0 -43 21 c-58 28 -77 66 -70 138 3 31 49 211 102 401 70 251
95 354 90 377 -12 68 -106 98 -159 51 -22 -19 -42 -80 -127 -383 -97 -342
-102 -365 -103 -460 -1 -85 3 -108 22 -150 30 -65 109 -138 180 -167 l57 -23
2140 0 2140 0 56 23 c73 29 143 91 176 156 22 41 27 68 31 141 l4 90 -337
1210 c-185 665 -348 1230 -360 1256 -40 78 -118 155 -198 194 -91 45 -154 55
-349 55 l-158 0 0 230 0 229 458 3 457 3 88 31 c124 45 189 87 287 184 94 93
150 186 189 312 27 91 37 208 21 248 -27 65 174 60 -2552 60 -2042 -1 -2487
-3 -2507 -14z m4855 -211 c-49 -195 -202 -350 -393 -400 -86 -23 -3820 -23
-3906 0 -191 50 -344 205 -393 400 l-6 25 2352 0 2352 0 -6 -25z m-2936 -845
l0 -230 -110 0 -110 0 0 223 c0 123 3 227 7 230 3 4 53 7 110 7 l103 0 0 -230z
m1020 0 l0 -230 -410 0 -410 0 0 230 0 230 410 0 410 0 0 -230z m420 0 l0
-230 -110 0 -110 0 0 230 0 230 110 0 110 0 0 -230z"/>
<path d="M2420 3065 c-706 -120 -1143 -834 -923 -1510 33 -104 110 -253 172
-335 63 -84 199 -214 280 -269 93 -64 252 -136 366 -167 92 -25 115 -28 285
-28 160 -1 197 2 275 22 535 135 895 593 895 1137 0 433 -237 827 -619 1028
-221 117 -494 162 -731 122z m90 -270 c0 -67 3 -79 24 -100 47 -47 112 -43
150 8 15 20 22 47 24 97 4 69 5 70 32 70 102 0 353 -104 447 -185 l28 -23 -53
-55 c-44 -48 -52 -62 -52 -95 0 -62 60 -110 118 -95 15 3 50 28 79 55 l52 50
36 -49 c77 -103 144 -272 170 -425 l6 -38 -79 0 c-73 0 -80 -2 -105 -28 -29
-30 -36 -86 -16 -124 16 -29 70 -48 139 -48 l61 0 -6 -37 c-23 -134 -89 -303
-156 -399 -19 -27 -37 -52 -41 -58 -3 -5 -32 14 -63 42 -50 46 -62 52 -100 52
-36 0 -48 -5 -69 -31 -43 -51 -36 -96 24 -162 l49 -54 -22 -20 c-90 -80 -274
-157 -444 -187 l-33 -6 0 61 c0 79 -20 126 -62 143 -42 18 -81 10 -112 -21
-22 -22 -26 -35 -28 -101 l-3 -77 -40 3 c-109 10 -316 93 -419 168 l-48 36 45
46 c58 59 71 93 57 138 -15 44 -45 64 -94 64 -35 0 -47 -7 -94 -52 l-53 -53
-24 28 c-70 80 -147 252 -175 387 l-17 85 72 5 c82 7 116 24 135 69 15 38 7
75 -25 107 -21 21 -33 24 -100 24 l-75 0 0 33 c0 96 76 293 160 417 l41 61 54
-49 c30 -27 65 -52 79 -56 41 -10 94 18 112 59 20 48 10 77 -48 140 l-49 54
58 39 c128 86 314 159 416 161 l37 1 0 -75z"/>
<path d="M2558 2425 c-41 -23 -48 -44 -49 -147 l0 -93 -47 -30 c-57 -37 -108
-102 -123 -158 -15 -55 -7 -163 16 -207 24 -49 82 -108 130 -132 24 -13 67
-23 108 -26 61 -4 73 -2 133 28 174 85 212 313 76 453 -20 21 -49 45 -64 53
-27 14 -28 17 -28 95 0 81 -14 133 -43 157 -24 20 -79 24 -109 7z m98 -449
c37 -31 38 -84 4 -121 -49 -52 -130 -14 -130 60 0 43 37 85 74 85 14 0 37 -11
52 -24z"/>
<path d="M539 1911 c-75 -76 4 -201 102 -161 41 17 59 47 59 96 0 85 -100 125
-161 65z"/>
</g>
</svg>
