<?xml version="1.0" standalone="no"?>
<!DOCTYPE svg PUBLIC "-//W3C//DTD SVG 20010904//EN"
 "http://www.w3.org/TR/2001/REC-SVG-20010904/DTD/svg10.dtd">
<svg version="1.0" xmlns="http://www.w3.org/2000/svg"
 width="512.000000pt" height="512.000000pt" viewBox="0 0 512.000000 512.000000"
 preserveAspectRatio="xMidYMid meet">

<g transform="translate(0.000000,512.000000) scale(0.100000,-0.100000)"
fill="#000000" stroke="none">
<path d="M1430 4730 c-641 -63 -1159 -531 -1297 -1172 -23 -105 -25 -459 -4
-553 27 -125 82 -306 116 -385 19 -45 35 -84 35 -86 0 -2 -41 -4 -91 -4 -109
0 -150 -16 -174 -67 -23 -47 -13 -95 26 -127 l31 -26 653 0 c484 0 661 3 680
12 18 8 57 63 124 176 l99 163 54 -83 c30 -46 121 -186 203 -313 81 -126 160
-242 173 -257 49 -54 143 -43 175 19 8 15 103 269 212 563 108 294 200 538
204 543 4 4 70 -160 146 -365 76 -205 144 -385 151 -400 30 -59 22 -58 462
-58 l404 0 34 34 c39 39 46 89 17 133 -33 50 -55 53 -411 53 l-329 0 -148 398
c-219 586 -225 603 -253 629 -18 17 -37 23 -68 23 -84 0 -77 14 -320 -644
-120 -328 -222 -596 -225 -596 -3 0 -95 138 -204 306 -109 168 -209 312 -221
321 -33 21 -91 19 -123 -5 -14 -10 -82 -112 -150 -226 l-124 -206 -376 2 -376
3 -47 95 c-128 259 -183 574 -144 828 40 263 158 494 351 688 351 355 874 461
1345 274 147 -58 275 -145 420 -286 148 -144 162 -144 304 -1 56 56 136 125
177 153 214 148 455 224 710 224 604 0 1112 -422 1225 -1018 19 -102 22 -316
5 -412 -18 -102 -78 -312 -112 -392 -162 -381 -601 -873 -1249 -1399 -207
-168 -602 -459 -822 -604 l-87 -57 -156 106 c-514 350 -933 687 -1295 1041
-91 89 -176 169 -190 178 -33 23 -86 21 -120 -3 -33 -24 -55 -80 -45 -118 13
-54 407 -428 725 -688 240 -197 529 -412 815 -606 212 -144 245 -162 285 -153
35 8 254 150 474 308 1046 749 1707 1440 1902 1988 39 110 91 328 105 433 40
325 -51 690 -245 980 -73 110 -228 273 -334 351 -444 328 -1032 383 -1522 140
-133 -65 -284 -170 -354 -244 -17 -17 -34 -31 -39 -31 -5 0 -37 24 -71 53
-249 217 -531 338 -853 366 -129 12 -151 12 -263 1z"/>
</g>
</svg>
